<svg width="48" height="48" viewBox="0 0 48 48" fill="none" xmlns="http://www.w3.org/2000/svg">
<circle cx="24" cy="24" r="23" fill="#D67A0B"/>
<path d="M18.7176 27.0735L17.5792 25.7986L12.4339 30.4658L13.5722 31.7408L18.7176 27.0735Z" fill="white" stroke="white" stroke-width="0.683009" stroke-miterlimit="10"/>
<path d="M35.9294 31.5815L37.0677 30.3065L31.8996 25.7531L30.7613 27.0281L35.9294 31.5815Z" fill="white" stroke="white" stroke-width="0.683009" stroke-miterlimit="10"/>
<path d="M25.4566 22.4291H23.7491L23.8174 35.2925H25.5249L25.4566 22.4291Z" fill="white" stroke="white" stroke-width="0.683009" stroke-miterlimit="10"/>
<path d="M17.7386 27.2102C16.1221 25.5027 15.1204 23.2032 15.0976 20.6533C15.0749 15.3486 19.3551 11.0229 24.637 11.0001C29.9417 10.9773 34.2446 15.2347 34.2902 20.5395C34.313 23.1577 33.2657 25.5482 31.5581 27.3012" stroke="white" stroke-width="2.2767" stroke-miterlimit="10"/>
<path d="M24.5915 22.9072C26.0941 22.9072 27.3235 21.6778 27.3235 20.1752C27.3235 18.6725 26.0941 17.4431 24.5915 17.4431C23.0889 17.4431 21.8594 18.6725 21.8594 20.1752C21.8594 21.6778 23.0889 22.9072 24.5915 22.9072Z" stroke="white" stroke-width="1.62099" stroke-miterlimit="10"/>
<path d="M12.9803 33.1979C14.1187 33.1979 15.0293 32.2872 15.0293 31.1489C15.0293 30.0105 14.1187 29.0999 12.9803 29.0999C11.842 29.0999 10.9313 30.0105 10.9313 31.1489C10.9313 32.2645 11.842 33.1979 12.9803 33.1979Z" fill="white"/>
<path d="M24.637 37C25.7754 37 26.6861 36.0893 26.6861 34.9509C26.6861 33.8126 25.7754 32.9019 24.637 32.9019C23.4987 32.9019 22.588 33.8126 22.588 34.9509C22.588 36.0893 23.5215 37 24.637 37Z" fill="white"/>
<path d="M36.6807 33.1524C37.8191 33.1524 38.7298 32.2417 38.7298 31.1033C38.7298 29.965 37.8191 29.0543 36.6807 29.0543C35.5424 29.0543 34.6317 29.965 34.6317 31.1033C34.6317 32.2189 35.5424 33.1524 36.6807 33.1524Z" fill="white"/>
</svg>
